# xmcd CD database file
#
# Track frame offsets:
#	150
#	8705
#	21754
#	35443
#	48952
#	66286
#	77423
#	93465
#	110631
#	122870
#
# Disc length: 1895 seconds
#
# Revision: 0
# Processed by: cddbd v1.4PL0 Copyright (c) Steve Scherf et al.
# Submitted via: CdAid 2001.05.15.01
#
DISCID=7807650a
DTITLE=Buttercup - Terminal E
DYEAR=1900
DGENRE=
TTITLE0=Plug It In
TTITLE1=No Friend Of The Wagon
TTITLE2=Head In The Sand
TTITLE3=Saffron Days
TTITLE4=Happy Endings
TTITLE5=Big Flood
TTITLE6=Walk Over Mountains
TTITLE7=Make Some room
TTITLE8=Take Me Over
TTITLE9=Summer Days
EXTD=
EXTT0=
EXTT1=
EXTT2=
EXTT3=
EXTT4=
EXTT5=
EXTT6=
EXTT7=
EXTT8=
EXTT9=
PLAYORDER=
